<svg width="20" height="21" viewBox="0 0 20 21" fill="none" xmlns="http://www.w3.org/2000/svg">
<path d="M14.6154 0.576172H5.38462C3.957 0.577699 2.58828 1.1455 1.5788 2.15498C0.569324 3.16446 0.00152714 4.53317 0 5.96079V15.1916C0.00152714 16.6192 0.569324 17.9879 1.5788 18.9974C2.58828 20.0068 3.957 20.5746 5.38462 20.5762H14.6154C16.043 20.5746 17.4117 20.0068 18.4212 18.9974C19.4307 17.9879 19.9985 16.6192 20 15.1916V5.96079C19.9985 4.53317 19.4307 3.16446 18.4212 2.15498C17.4117 1.1455 16.043 0.577699 14.6154 0.576172ZM10 15.1916C9.08716 15.1916 8.19483 14.9209 7.43583 14.4137C6.67683 13.9066 6.08527 13.1858 5.73594 12.3424C5.38661 11.4991 5.29521 10.5711 5.4733 9.67576C5.65138 8.78046 6.09096 7.95808 6.73643 7.3126C7.3819 6.66713 8.20429 6.22756 9.09958 6.04947C9.99488 5.87139 10.9229 5.96279 11.7662 6.31211C12.6096 6.66144 13.3304 7.25301 13.8376 8.012C14.3447 8.771 14.6154 9.66333 14.6154 10.5762C14.6141 11.7999 14.1274 12.9731 13.2622 13.8383C12.3969 14.7036 11.2237 15.1903 10 15.1916ZM15.7692 5.96079C15.541 5.96079 15.3179 5.89312 15.1282 5.76633C14.9384 5.63954 14.7905 5.45934 14.7032 5.2485C14.6159 5.03766 14.593 4.80566 14.6376 4.58184C14.6821 4.35801 14.792 4.15242 14.9533 3.99105C15.1147 3.82968 15.3203 3.71979 15.5441 3.67527C15.768 3.63074 16 3.65359 16.2108 3.74093C16.4216 3.82826 16.6018 3.97615 16.7286 4.1659C16.8554 4.35565 16.9231 4.57873 16.9231 4.80694C16.9231 5.11296 16.8015 5.40645 16.5851 5.62283C16.3687 5.83922 16.0753 5.96079 15.7692 5.96079ZM13.0769 10.5762C13.0769 11.1847 12.8965 11.7796 12.5584 12.2856C12.2203 12.7916 11.7397 13.186 11.1775 13.4189C10.6153 13.6518 9.99659 13.7127 9.39972 13.594C8.80286 13.4752 8.2546 13.1822 7.82429 12.7519C7.39397 12.3216 7.10092 11.7733 6.9822 11.1764C6.86348 10.5796 6.92441 9.96092 7.15729 9.39868C7.39018 8.83645 7.78456 8.3559 8.29055 8.0178C8.79655 7.67971 9.39144 7.49925 10 7.49925C10.8161 7.49925 11.5987 7.82342 12.1757 8.40046C12.7527 8.97749 13.0769 9.76012 13.0769 10.5762Z" fill="#F7F7F7"/>
</svg>
