<svg width="98" height="14" viewBox="0 0 98 14" fill="none" xmlns="http://www.w3.org/2000/svg">
<g clip-path="url(#clip0_6_2)">
<path d="M0.789972 11.0024C0.986772 10.3487 1.16727 9.7449 1.38197 9.0252C10.0901 11.8251 18.5038 11.4467 26.4622 6.6712C18.3721 2.2097 9.99247 2.4367 1.41937 5.3638C1.20147 4.7263 0.993272 4.116 0.754272 3.4173C1.50557 3.1725 2.21937 2.9149 2.94797 2.704C6.66857 1.6333 10.4608 1.0714 14.3457 1.1808C18.551 1.3 22.4895 2.4142 26.2492 4.2239C26.9745 4.5733 27.703 4.9195 28.4071 5.3075C28.7437 5.4927 29.0072 5.4637 29.3324 5.2946C32.6481 3.5654 36.0712 2.1002 39.7544 1.3322C46.2932 -0.0314982 52.7718 0.256703 59.0976 2.3755C62.0214 3.3545 64.8379 4.6506 67.6772 5.863C68.1976 6.0852 68.5618 6.0336 69.0302 5.8243C71.6304 4.6683 74.2127 3.4607 76.8618 2.4238C80.2832 1.0859 83.8542 0.412804 87.55 0.540004C90.866 0.652704 94.052 1.3741 97.199 2.5945C96.963 3.2401 96.738 3.8584 96.522 4.4493C95.057 4.0307 93.652 3.567 92.218 3.2305C87.536 2.1324 82.9127 2.448 78.4164 4.0838C75.9023 4.9984 73.4696 6.1319 70.9995 7.1671C70.9507 7.1881 70.9116 7.2348 70.7962 7.3281C72.0126 7.8627 73.1785 8.3988 74.364 8.8931C77.1415 10.0508 79.9921 10.9524 83.0086 11.2761C86.757 11.677 90.388 11.165 93.935 9.9606C94.574 9.7433 95.215 9.52271 95.824 9.23931C96.246 9.04291 96.486 9.2168 96.649 9.5259C96.872 9.9494 97.026 10.4082 97.246 10.9428C96.138 11.3485 95.084 11.7816 94.001 12.123C90.492 13.2259 86.907 13.725 83.22 13.3772C80.1271 13.0858 77.1707 12.2727 74.3152 11.0957C72.4467 10.3245 70.6108 9.4744 68.7716 8.6355C68.4496 8.489 68.2025 8.48581 67.8805 8.63391C64.7322 10.0894 61.5401 11.4387 58.1577 12.2856C49.6171 14.4238 41.3269 13.7717 33.3197 10.0653C31.9781 9.4438 30.6577 8.7724 29.3405 8.101C29.012 7.9335 28.7649 7.9142 28.412 8.0784C26.0541 9.1765 23.727 10.3567 21.3024 11.2906C17.5297 12.7429 13.5717 13.0616 9.54847 12.7461C6.68977 12.5223 3.90247 11.9604 1.16237 11.1392C1.05667 11.107 0.954272 11.0651 0.788372 11.0056L0.789972 11.0024ZM31.1618 6.6841C42.6458 13.0262 54.1541 12.7686 65.8071 7.2815C54.3476 1.6172 42.8637 0.688204 31.1618 6.6841Z" fill="#0d0d0d"/>
</g>
<defs>
<clipPath id="clip0_6_2">
<rect width="98" height="14" fill="#0d0d0d"/>
</clipPath>
</defs>
</svg>
