<svg width="101" height="16" viewBox="0 0 101 16" fill="none" xmlns="http://www.w3.org/2000/svg">
<path d="M53.6541 1.03213C43.7984 0.496353 36.6072 3.61168 30.1868 6.59926C22.6425 3.08009 15.1296 -0.735261 4.59752 1.79082L4.34013 1.85365C3.22838 2.13004 2.16136 2.45605 1.13713 2.82587C0.242141 3.14903 -0.219959 4.13224 0.105154 5.02185C0.430273 5.91145 1.41943 6.37056 2.31441 6.0474C3.22737 5.71776 4.18073 5.42646 5.17682 5.17881C13.4422 3.12487 19.4609 5.43002 26.1032 8.48563C19.9408 11.248 14.1548 13.1486 6.41797 11.227C4.99004 10.8705 3.64221 10.4225 2.37675 9.90845L2.29378 9.87714C1.43309 9.5771 0.477622 9.99766 0.128613 10.8463C-0.231632 11.7225 0.190788 12.7231 1.07218 13.0812L1.33761 13.1876C2.67016 13.7159 4.08436 14.1784 5.57801 14.5513L5.57997 14.5517C15.6821 17.0615 22.989 13.7481 30.1928 10.3821C36.3063 13.1799 43.1887 15.8751 52.4149 15.3735L52.4151 15.3732C60.5214 14.9312 65.8119 12.2699 70.6016 9.81302C76.2063 12.6885 81.9087 15.5879 91.4469 14.5925L91.4473 14.5923C94.0523 14.3196 96.4973 13.8053 98.7671 13.1339C99.6798 12.8639 100.2 11.9096 99.9279 11.0024C99.6563 10.0953 98.6962 9.57889 97.7836 9.84886C95.7018 10.4647 93.4654 10.9345 91.087 11.1836C83.7761 11.9465 79.117 10.2104 74.433 7.90376C78.7092 5.90944 83.1797 4.52353 89.8469 5.22027L89.8467 5.22048C92.6846 5.51739 95.3182 6.12788 97.73 6.92722C98.6333 7.22661 99.6098 6.74126 99.911 5.84337C100.212 4.94553 99.724 3.97508 98.8208 3.67568C96.1935 2.80491 93.3153 2.13688 90.2077 1.81176C81.3741 0.888628 75.8437 3.30214 70.6007 5.95953C66.1162 3.69205 61.068 1.43422 53.6541 1.03213ZM34.3561 8.47116C39.886 6.03082 45.7779 4.03647 53.466 4.45445C59.0129 4.75529 63.0747 6.18063 66.766 7.90441C62.7273 9.88939 58.4029 11.6141 52.2261 11.9509C45.112 12.3377 39.5297 10.6573 34.3561 8.47116Z" fill="#2D2D2D"/>
<path d="M53.6541 0.0605506C43.7984 -0.475224 36.6072 2.64011 30.1868 5.62768C22.6425 2.10852 15.1296 -1.70684 4.59752 0.819244L4.34013 0.882072C3.22837 1.15847 2.16136 1.48447 1.13713 1.8543C0.242141 2.17745 -0.219959 3.16067 0.105154 4.05027C0.430272 4.93987 1.41943 5.39898 2.31441 5.07583C3.22737 4.74618 4.18073 4.45488 5.17682 4.20724C13.4422 2.1533 19.4609 4.45845 26.1032 7.51405C19.9408 10.2764 14.1548 12.1771 6.41797 10.2554C4.99004 9.89895 3.64222 9.45097 2.37675 8.93687L2.29378 8.90556C1.43309 8.60552 0.477621 9.02608 0.128613 9.87476C-0.231632 10.7509 0.190787 11.7515 1.07218 12.1096L1.33761 12.216C2.67016 12.7443 4.08436 13.2068 5.57801 13.5797L5.57997 13.5801C15.6821 16.09 22.989 12.7765 30.1928 9.41057C36.3063 12.2084 43.1887 14.9036 52.4149 14.4019L52.4151 14.4017C60.5214 13.9597 65.8119 11.2983 70.6016 8.84144C76.2063 11.7169 81.9087 14.6163 91.4469 13.6209L91.4473 13.6207C94.0523 13.348 96.4973 12.8337 98.7671 12.1623C99.6798 11.8923 100.2 10.938 99.9279 10.0309C99.6563 9.12375 98.6962 8.60732 97.7836 8.87728C95.7018 9.4931 93.4654 9.96295 91.087 10.212C83.7761 10.9749 79.117 9.23878 74.433 6.93218C78.7092 4.93787 83.1797 3.55195 89.8469 4.24869L89.8467 4.24891C92.6846 4.54581 95.3182 5.1563 97.73 5.95564C98.6333 6.25503 99.6098 5.76968 99.911 4.8718C100.212 3.97395 99.724 3.00351 98.8208 2.7041C96.1935 1.83334 93.3153 1.1653 90.2077 0.840186C81.3741 -0.0829479 75.8437 2.33056 70.6007 4.98795C66.1162 2.72047 61.068 0.462646 53.6541 0.0605506ZM34.3561 7.49958C39.886 5.05924 45.7779 3.0649 53.466 3.48287C59.0129 3.78371 63.0747 5.20906 66.766 6.93283C62.7273 8.91781 58.4029 10.6426 52.2261 10.9793C45.112 11.3662 39.5297 9.68568 34.3561 7.49958Z" fill="black"/>
</svg>
