<svg width="20" height="21" viewBox="0 0 20 21" fill="none" xmlns="http://www.w3.org/2000/svg">
<path d="M9.95333 0.576172C7.30926 0.588511 4.7777 1.64752 2.91241 3.52155C1.04713 5.39558 -2.87909e-05 7.93207 5.93696e-10 10.5762C5.937e-10 13.2283 1.05357 15.7719 2.92893 17.6472C4.8043 19.5226 7.34784 20.5762 10 20.5762C12.6522 20.5762 15.1957 19.5226 17.0711 17.6472C18.9464 15.7719 20 13.2283 20 10.5762C20 7.92401 18.9464 5.38047 17.0711 3.5051C15.1957 1.62974 12.6522 0.576172 10 0.576172L9.95333 0.576172ZM14.0883 6.59617C14.1717 6.5945 14.3558 6.61534 14.4758 6.71284C14.556 6.78177 14.6069 6.87859 14.6183 6.98367C14.6317 7.06117 14.6483 7.23867 14.635 7.37701C14.485 8.95867 13.8333 12.7953 13.5017 14.5662C13.3617 15.3162 13.0858 15.567 12.8183 15.5912C12.2383 15.6453 11.7975 15.2078 11.235 14.8395C10.355 14.262 9.8575 13.9028 9.00333 13.3395C8.01583 12.6895 8.65583 12.3312 9.21833 11.7478C9.36583 11.5945 11.9242 9.267 11.9742 9.05617C11.98 9.0295 11.9858 8.93117 11.9275 8.87951C11.8692 8.82784 11.7825 8.84534 11.72 8.8595C11.6317 8.88006 10.2258 9.80923 7.5025 11.647C7.1025 11.922 6.74083 12.0553 6.4175 12.047C6.06083 12.0403 5.37417 11.8462 4.86333 11.6803C4.23667 11.4762 3.73917 11.3687 3.7825 11.0228C3.80472 10.8428 4.05278 10.6587 4.52667 10.4703C7.44167 9.20034 9.38556 8.36312 10.3583 7.95867C13.135 6.80367 13.7125 6.60284 14.0883 6.59617Z" fill="#F7F7F7"/>
</svg>
