<svg width="20" height="21" viewBox="0 0 20 21" fill="none" xmlns="http://www.w3.org/2000/svg">
<path d="M2.85714 0.576172C1.28125 0.576172 0 1.85742 0 3.43331V17.719C0 19.2949 1.28125 20.5762 2.85714 20.5762H17.1429C18.7188 20.5762 20 19.2949 20 17.719V3.43331C20 1.85742 18.7188 0.576172 17.1429 0.576172H2.85714ZM16.1205 4.32617L11.4866 9.62082L16.9375 16.8262H12.6696L9.33036 12.4556L5.50446 16.8262H3.38393L8.33929 11.161L3.11161 4.32617H7.48661L10.5089 8.32171L14 4.32617H16.1205ZM14.433 15.5583L6.84821 5.52706H5.58482L13.2545 15.5583H14.4286H14.433Z" fill="#F7F7F7"/>
</svg>
